<?xml version="1.0" encoding="iso-8859-1"?>
<!-- Generator: Adobe Illustrator 19.1.0, SVG Export Plug-In . SVG Version: 6.00 Build 0)  -->
<svg version="1.1" id="Capa_1" xmlns="http://www.w3.org/2000/svg" xmlns:xlink="http://www.w3.org/1999/xlink" x="0px" y="0px"
	 viewBox="0 0 470.002 470.002" style="enable-background:new 0 0 470.002 470.002;" xml:space="preserve">
<g>
	<path style="fill:#FFAD85;" d="M45.001,242.837v178.271c0,4.135,3.364,7.5,7.5,7.5s7.5-3.365,7.5-7.5V255.262
		C54.724,251.561,49.711,247.41,45.001,242.837z"/>
	<path style="fill:#FF3B33;" d="M360.249,42.772c-41.812,4.066-73.708,16.824-94.804,37.919c-18.21,18.21-42.679,18.21-60.889,0
		C151.499,27.633,44.246,42.341,20.081,46.471C15.966,70.638,1.305,177.959,54.297,230.951c20.068,20.068,46.75,31.12,75.13,31.12
		c28.381,0,55.062-11.052,75.13-31.12c18.21-18.209,42.679-18.209,60.889,0c20.068,20.068,46.75,31.12,75.13,31.12
		c28.38,0,55.062-11.052,75.13-31.12c52.996-52.996,38.329-160.325,34.214-184.484c-9.693-1.668-32.754-5.056-60.163-5.07
		c-4.114-0.002-7.449-3.317-7.492-7.42c-4.989,0.108-10.095,0.335-15.273,0.702C367.337,38.761,364.339,42.374,360.249,42.772z
		 M184.32,160.845c-16.087,17.833-39.075,28.061-63.069,28.061s-46.981-10.228-63.069-28.061c-2.575-2.854-2.575-7.193,0-10.047
		c16.087-17.833,39.075-28.062,63.069-28.062s46.982,10.228,63.069,28.062C186.895,153.652,186.895,157.99,184.32,160.845z
		 M411.82,150.798c2.575,2.854,2.575,7.193,0,10.047c-16.087,17.833-39.075,28.061-63.069,28.061s-46.981-10.228-63.069-28.061
		c-2.575-2.854-2.575-7.193,0-10.047c16.087-17.833,39.075-28.062,63.069-28.062S395.733,132.964,411.82,150.798z"/>
	<path style="fill:#081C1F;" d="M463.704,38.49c-0.611-2.912-2.887-5.187-5.798-5.798c-1.221-0.256-30.323-6.277-68.141-6.296
		c-4.144,0-7.502,3.355-7.504,7.496c0,0.028,0.004,0.055,0.004,0.083c0.043,4.103,3.378,7.418,7.492,7.42
		c27.409,0.014,50.47,3.402,60.163,5.07c4.115,24.159,18.781,131.489-34.214,184.484c-20.068,20.068-46.75,31.12-75.13,31.12
		c-28.381,0-55.062-11.052-75.13-31.12c-18.21-18.209-42.679-18.209-60.889,0c-20.068,20.068-46.75,31.12-75.13,31.12
		c-28.38,0-55.062-11.052-75.13-31.12C1.305,177.959,15.966,70.638,20.081,46.471c24.165-4.13,131.418-18.838,184.476,34.219
		c18.21,18.21,42.679,18.21,60.889,0c21.095-21.095,52.992-33.853,94.804-37.919c4.09-0.398,7.087-4.011,6.743-8.094
		c-0.003-0.032-0.001-0.064-0.005-0.097c-0.401-4.123-4.07-7.139-8.191-6.739c-45.363,4.412-80.34,18.624-103.958,42.242
		c-12.236,12.236-27.439,12.236-39.676,0C187.899,42.82,143.992,27.742,88.189,26.482c-41.533-0.938-74.701,5.918-76.093,6.21
		c-2.912,0.612-5.187,2.887-5.798,5.798c-0.292,1.392-7.148,34.56-6.21,76.092c1.03,45.624,11.302,83.289,29.913,110.415v196.11
		c0,12.407,10.093,22.5,22.5,22.5s22.5-10.093,22.5-22.5v-156.87c16.679,8.393,35.211,12.833,54.425,12.833
		c32.387,0,62.836-12.612,85.737-35.514c12.237-12.235,27.439-12.236,39.676,0c22.901,22.901,53.35,35.514,85.737,35.514
		c32.387,0,62.835-12.612,85.736-35.514c27.265-27.265,42.342-71.171,43.602-126.975C470.852,73.05,463.997,39.882,463.704,38.49z
		 M52.501,428.608c-4.136,0-7.5-3.365-7.5-7.5V242.837c4.71,4.573,9.723,8.724,15,12.425v165.846
		C60.001,425.243,56.637,428.608,52.501,428.608z"/>
	<path style="fill:#081C1F;" d="M285.682,150.798c-2.575,2.854-2.575,7.193,0,10.047c16.087,17.833,39.075,28.061,63.069,28.061
		s46.981-10.228,63.069-28.061c2.575-2.854,2.575-7.193,0-10.047c-16.087-17.833-39.075-28.062-63.069-28.062
		S301.769,132.964,285.682,150.798z M348.751,173.906c-17.378,0-34.118-6.519-46.913-18.085
		c12.794-11.566,29.534-18.085,46.913-18.085s34.118,6.519,46.913,18.085C382.869,167.387,366.13,173.906,348.751,173.906z"/>
	<path style="fill:#081C1F;" d="M121.251,122.736c-23.994,0-46.982,10.228-63.069,28.062c-2.575,2.854-2.575,7.193,0,10.047
		c16.087,17.833,39.075,28.061,63.069,28.061s46.981-10.228,63.069-28.061c2.575-2.854,2.575-7.193,0-10.047
		C168.233,132.964,145.245,122.736,121.251,122.736z M121.251,173.906c-17.378,0-34.118-6.519-46.913-18.085
		c12.794-11.566,29.534-18.085,46.913-18.085s34.118,6.519,46.913,18.085C155.369,167.387,138.63,173.906,121.251,173.906z"/>
</g>
<g>
</g>
<g>
</g>
<g>
</g>
<g>
</g>
<g>
</g>
<g>
</g>
<g>
</g>
<g>
</g>
<g>
</g>
<g>
</g>
<g>
</g>
<g>
</g>
<g>
</g>
<g>
</g>
<g>
</g>
</svg>
